<?xml version="1.0" standalone="no"?>
<!DOCTYPE svg PUBLIC "-//W3C//DTD SVG 20010904//EN"
 "http://www.w3.org/TR/2001/REC-SVG-20010904/DTD/svg10.dtd">
<svg version="1.0" xmlns="http://www.w3.org/2000/svg"
 width="1856.000000pt" height="1856.000000pt" viewBox="0 0 1856.000000 1856.000000"
 preserveAspectRatio="xMidYMid meet">
<metadata>
Created by potrace 1.14, written by Peter Selinger 2001-2017
</metadata>
<g transform="translate(0.000000,1856.000000) scale(0.100000,-0.100000)"
fill="#000000" stroke="none">
<path d="M120 12248 c-74 -38 -110 -110 -110 -219 0 -68 28 -115 83 -142 21
-10 91 -23 163 -31 213 -24 253 -57 316 -268 160 -537 544 -1687 816 -2443
242 -674 422 -1145 742 -1945 97 -245 190 -481 205 -525 45 -132 130 -289 181
-334 61 -54 106 -61 172 -27 78 40 106 84 213 342 99 242 403 1028 944 2449
63 163 76 186 101 170 32 -20 168 -347 478 -1145 315 -812 597 -1522 633
-1595 93 -186 220 -276 326 -231 51 21 123 99 179 192 66 112 394 825 623
1354 428 989 709 1678 985 2415 152 406 224 605 445 1234 44 125 80 209 100
235 66 87 164 128 351 146 114 10 174 36 206 88 19 31 23 51 23 117 0 88 -17
131 -67 168 -27 20 -31 20 -255 6 -298 -18 -1017 -18 -1313 0 -213 13 -228 13
-263 -4 -55 -26 -78 -77 -78 -170 0 -79 12 -114 53 -152 36 -34 64 -40 265
-63 289 -32 325 -43 377 -113 47 -64 8 -273 -149 -806 -191 -647 -592 -1756
-898 -2481 -80 -189 -311 -710 -350 -788 -45 -92 -124 -101 -192 -21 -135 161
-945 2206 -1430 3614 -100 289 -107 316 -109 392 -1 68 2 86 20 110 50 68 122
95 318 119 241 29 271 51 271 192 0 101 -17 142 -67 168 -30 16 -51 16 -258 3
-297 -18 -1053 -18 -1350 0 -248 15 -280 12 -332 -37 -35 -32 -51 -82 -51
-154 1 -70 16 -118 47 -148 27 -24 65 -30 321 -49 223 -17 246 -28 300 -146
34 -73 292 -814 497 -1430 143 -426 140 -397 53 -610 -31 -77 -138 -347 -237
-600 -294 -752 -468 -1186 -504 -1256 -34 -68 -82 -119 -113 -119 -27 0 -59
28 -85 73 -26 46 -214 548 -508 1357 -269 741 -478 1342 -703 2020 -172 518
-178 545 -136 613 47 77 142 107 340 107 91 0 125 4 156 19 85 38 117 116 95
231 -12 63 -34 97 -80 124 -32 19 -41 19 -209 7 -256 -19 -850 -25 -1086 -12
-456 25 -415 25 -465 -1z"/>
<path d="M8741 12242 c-19 -9 -43 -28 -53 -42 -17 -23 -133 -533 -238 -1045
-41 -201 -42 -244 -5 -314 31 -61 121 -99 195 -82 83 18 92 32 295 430 105
205 205 392 223 417 46 61 95 84 211 95 54 6 375 9 742 7 l646 -3 49 -30 c62
-39 91 -82 99 -148 3 -29 5 -1042 3 -2252 -3 -2077 -4 -2203 -21 -2245 -47
-121 -119 -149 -437 -170 -178 -12 -328 -33 -369 -53 -42 -19 -64 -77 -64
-166 0 -108 26 -165 87 -192 44 -19 50 -19 273 -4 125 8 318 20 428 26 273 16
1047 6 1365 -17 351 -25 352 -25 389 10 41 39 56 111 43 204 -12 87 -34 130
-76 147 -18 8 -160 26 -315 40 -304 28 -420 45 -458 71 -56 36 -53 -109 -53
2383 l0 2299 26 32 c58 68 22 65 719 68 715 4 796 -1 869 -50 54 -35 126 -130
191 -253 49 -92 218 -387 263 -460 36 -59 102 -123 138 -135 49 -17 105 2 147
50 61 67 63 92 22 307 -204 1066 -193 1023 -264 1070 l-34 23 -2501 0 c-2361
0 -2503 -1 -2535 -18z"/>
<path d="M14287 12243 c-46 -30 -71 -95 -75 -197 -5 -103 13 -155 62 -185 42
-26 68 -29 303 -41 173 -8 211 -13 259 -33 46 -18 61 -30 78 -62 l21 -40 3
-2320 c2 -1733 0 -2330 -9 -2360 -16 -58 -46 -95 -93 -116 -44 -19 -211 -44
-366 -54 -118 -8 -161 -19 -199 -51 -38 -32 -55 -82 -54 -164 0 -73 18 -116
59 -149 53 -41 83 -43 411 -19 518 38 1444 31 1909 -13 135 -13 172 -2 205 64
18 34 20 54 17 153 l-3 114 -37 36 c-27 27 -49 39 -85 45 -26 5 -194 13 -373
18 -328 9 -396 17 -468 55 -42 22 -91 79 -102 117 -6 21 -10 464 -10 1195 l0
1161 23 33 c12 19 38 43 57 54 34 21 46 21 780 21 701 0 747 -1 778 -18 47
-25 58 -61 72 -222 11 -141 41 -339 60 -406 24 -85 88 -125 183 -114 74 8 123
27 159 62 54 52 58 95 38 388 -17 240 -18 854 -1 1092 19 278 18 296 -12 342
-33 50 -96 81 -166 81 -78 0 -127 -32 -166 -109 -18 -35 -57 -233 -75 -379 -7
-51 -22 -111 -37 -144 -42 -94 12 -88 -842 -88 -514 0 -748 3 -770 11 -63 22
-61 -13 -61 867 l0 799 23 44 c16 29 40 54 72 74 l48 30 855 3 c973 3 933 6
1009 -73 23 -24 52 -63 66 -87 127 -225 232 -400 289 -485 81 -119 172 -209
222 -219 84 -15 156 34 182 123 18 61 25 17 -76 463 -17 74 -51 225 -75 336
-56 262 -75 297 -180 346 l-50 23 -725 4 c-420 2 -988 -3 -1350 -10 -747 -17
-1319 -16 -1490 0 -237 23 -262 24 -293 4z"/>
</g>
</svg>
